<svg width="48" height="48" viewBox="0 0 48 48" fill="none" xmlns="http://www.w3.org/2000/svg">
    <g id="Group 427321815">
        <path id="Vector"
              d="M0 0V48.0002H48V0H0ZM37.375 29.5491C37.3097 30.9853 37.0812 31.9564 36.7467 32.8133C36.4039 33.6946 35.9388 34.4453 35.1962 35.1961C34.4454 35.9469 33.6946 36.4042 32.8133 36.7469C31.9564 37.0815 30.9772 37.3104 29.5491 37.3757C28.1129 37.441 27.6559 37.457 24 37.457C20.3441 37.457 19.8871 37.441 18.4509 37.3757C17.0146 37.3104 16.0435 37.0815 15.1867 36.7469C14.3053 36.4042 13.5546 35.9387 12.8038 35.1961C12.053 34.4453 11.596 33.6946 11.2533 32.8133C10.9187 31.9564 10.6903 30.9772 10.625 29.5491C10.5597 28.1129 10.5433 27.656 10.5433 24.0001C10.5433 20.3442 10.5597 19.8874 10.625 18.4512C10.6903 17.0149 10.9187 16.0438 11.2533 15.187C11.596 14.3056 12.0612 13.5549 12.8038 12.8042C13.5546 12.0534 14.3053 11.5961 15.1867 11.2533C16.0435 10.9188 17.0228 10.6907 18.4509 10.6254C19.8871 10.5601 20.3441 10.5433 24 10.5433C27.6559 10.5433 28.1129 10.5601 29.5491 10.6254C30.9853 10.6907 31.9564 10.9188 32.8133 11.2533C33.6946 11.5961 34.4454 12.0534 35.1962 12.8042C35.947 13.5549 36.4039 14.3056 36.7467 15.187C37.0812 16.0438 37.3097 17.0231 37.375 18.4512C37.4403 19.8874 37.4566 20.3442 37.4566 24.0001C37.4566 27.656 37.4403 28.1129 37.375 29.5491Z"
              fill="white"/>
        <path id="Vector_2"
              d="M24.0001 19.512C21.5193 19.512 19.5118 21.5194 19.5118 24.0002C19.5118 26.481 21.5193 28.4885 24.0001 28.4885C26.4809 28.4885 28.4884 26.481 28.4884 24.0002C28.4884 21.5194 26.4809 19.512 24.0001 19.512Z"
              fill="white"/>
        <path id="Vector_3"
              d="M34.9519 18.5651C34.8948 17.2513 34.6744 16.5417 34.4867 16.0684C34.2419 15.44 33.9481 14.9909 33.483 14.5175C33.0097 14.0442 32.5609 13.759 31.9325 13.5142C31.4592 13.3265 30.7492 13.1141 29.4354 13.0488C28.0155 12.9835 27.5911 12.9675 24.0005 12.9675C20.4099 12.9675 19.9774 12.9835 18.5656 13.0488C17.2518 13.1059 16.5418 13.3265 16.0685 13.5142C15.4401 13.759 14.9913 14.0524 14.518 14.5175C14.0447 14.9909 13.7591 15.44 13.5143 16.0684C13.3266 16.5417 13.1144 17.2513 13.0491 18.5651C12.9838 19.985 12.9675 20.4095 12.9675 24.0001C12.9675 27.5907 12.9838 28.0234 13.0491 29.4351C13.1062 30.749 13.3266 31.4586 13.5143 31.9319C13.7591 32.5603 14.0528 33.0094 14.518 33.4827C14.9913 33.956 15.4401 34.242 16.0685 34.4868C16.5418 34.6745 17.2518 34.8862 18.5656 34.9514C19.9855 35.0167 20.4099 35.0335 24.0005 35.0335C27.5911 35.0335 28.0236 35.0167 29.4354 34.9514C30.7492 34.8943 31.4592 34.6745 31.9325 34.4868C32.5609 34.242 33.0097 33.9479 33.483 33.4827C33.9563 33.0094 34.2419 32.5603 34.4867 31.9319C34.6744 31.4586 34.8866 30.749 34.9519 29.4351C35.0172 28.0152 35.0335 27.5907 35.0335 24.0001C35.0335 20.4095 35.0172 19.985 34.9519 18.5651ZM23.9923 30.9118C20.1732 30.9118 17.0804 27.8192 17.0804 24.0001C17.0804 20.181 20.1732 17.0884 23.9923 17.0884C27.8114 17.0884 30.9043 20.181 30.9043 24.0001C30.9043 27.8192 27.8114 30.9118 23.9923 30.9118ZM31.1736 18.4344C30.2841 18.4344 29.5578 17.7085 29.5578 16.8191C29.5578 15.9296 30.2841 15.2029 31.1736 15.2029C32.0631 15.2029 32.7893 15.9296 32.7893 16.8191C32.7893 17.7085 32.0631 18.4344 31.1736 18.4344Z"
              fill="white"/>
    </g>
</svg>
