<svg width="48" height="48" viewBox="0 0 48 48" fill="none" xmlns="http://www.w3.org/2000/svg">
<path id="Vector" d="M0 0V48H48V0H0ZM17.137 36.5347H11.9633V19.8138H17.137V36.5347ZM14.5257 17.627C12.8364 17.627 11.4655 16.2477 11.4655 14.5422C11.4655 12.8366 12.8364 11.4573 14.5257 11.4573C16.2149 11.4573 17.5858 12.8366 17.5858 14.5422C17.5858 16.2477 16.2149 17.627 14.5257 17.627ZM36.5345 36.5347H31.3852V27.7623C31.3852 25.3549 30.4713 24.008 28.5699 24.008C26.4971 24.008 25.4199 25.412 25.4199 27.7623V36.5347H20.4584V19.8138H25.4199V22.0659C25.4199 22.0659 26.9133 19.2998 30.455 19.2998C33.9966 19.2998 36.5345 21.462 36.5345 25.9421V36.5268V36.5347Z" fill="white"/>
</svg>
