<svg width="48" height="48" viewBox="0 0 48 48" fill="none" xmlns="http://www.w3.org/2000/svg">
<g id="Group 427321814">
<path id="Vector" d="M0 0V48.0002H48V0H0ZM37.1139 30.6265C36.7956 31.8098 35.8735 32.7486 34.6902 33.0587C32.5522 33.6381 24 33.6381 24 33.6381C24 33.6381 15.4396 33.6381 13.3098 33.0587C12.1346 32.7405 11.2043 31.8098 10.8861 30.6265C10.3148 28.4803 10.3149 24.0001 10.3149 24.0001C10.3149 24.0001 10.3148 19.5199 10.8861 17.3737C11.2043 16.1904 12.1265 15.2524 13.3098 14.9423C15.4478 14.3629 24 14.3629 24 14.3629C24 14.3629 32.5604 14.3629 34.6902 14.9423C35.8654 15.2606 36.7956 16.1904 37.1139 17.3737C37.6851 19.5199 37.6851 24.0001 37.6851 24.0001C37.6851 24.0001 37.6851 28.4803 37.1139 30.6265Z" fill="white"/>
<path id="Vector_2" d="M21.2006 28.0723V19.9365L28.3492 24L21.2006 28.0723Z" fill="white"/>
</g>
</svg>
