<svg width="40" height="40" viewBox="0 0 40 40" fill="none" xmlns="http://www.w3.org/2000/svg">
<g id="format-list-bulleted">
<path id="Vector" d="M10.8 18.2C9.804 18.2 9 19.004 9 20C9 20.996 9.804 21.8 10.8 21.8C11.796 21.8 12.6 20.996 12.6 20C12.6 19.004 11.796 18.2 10.8 18.2ZM10.8 11C9.804 11 9 11.804 9 12.8C9 13.796 9.804 14.6 10.8 14.6C11.796 14.6 12.6 13.796 12.6 12.8C12.6 11.804 11.796 11 10.8 11ZM10.8 25.4C9.804 25.4 9 26.216 9 27.2C9 28.184 9.816 29 10.8 29C11.784 29 12.6 28.184 12.6 27.2C12.6 26.216 11.796 25.4 10.8 25.4ZM15.6 28.4H30C30.66 28.4 31.2 27.86 31.2 27.2C31.2 26.54 30.66 26 30 26H15.6C14.94 26 14.4 26.54 14.4 27.2C14.4 27.86 14.94 28.4 15.6 28.4ZM15.6 21.2H30C30.66 21.2 31.2 20.66 31.2 20C31.2 19.34 30.66 18.8 30 18.8H15.6C14.94 18.8 14.4 19.34 14.4 20C14.4 20.66 14.94 21.2 15.6 21.2ZM14.4 12.8C14.4 13.46 14.94 14 15.6 14H30C30.66 14 31.2 13.46 31.2 12.8C31.2 12.14 30.66 11.6 30 11.6H15.6C14.94 11.6 14.4 12.14 14.4 12.8Z" fill="#005DAC"/>
</g>
</svg>
