<svg xmlns="http://www.w3.org/2000/svg" width="24" height="24" viewBox="0 0 24 24" fill="none">
<path d="M6.39999 20.2C5.95999 20.2 5.58332 20.0433 5.26999 19.73C4.95665 19.4166 4.79999 19.04 4.79999 18.6V7.39995C4.79999 6.95995 4.95665 6.58328 5.26999 6.26995C5.58332 5.95662 5.95999 5.79995 6.39999 5.79995H7.19999V4.19995H8.79999V5.79995H15.2V4.19995H16.8V5.79995H17.6C18.04 5.79995 18.4167 5.95662 18.73 6.26995C19.0433 6.58328 19.2 6.95995 19.2 7.39995V18.6C19.2 19.04 19.0433 19.4166 18.73 19.73C18.4167 20.0433 18.04 20.2 17.6 20.2H6.39999ZM6.39999 18.6H17.6V10.6H6.39999V18.6Z" fill="#005DAC"/>
</svg>