<svg xmlns="http://www.w3.org/2000/svg" width="48" height="48" viewBox="0 0 48 48" fill="none">
<path d="M0 0V48.0002H48V0H0ZM37.375 29.5491C37.3097 30.9853 37.0812 31.9564 36.7467 32.8133C36.4039 33.6946 35.9388 34.4453 35.1962 35.1961C34.4454 35.9469 33.6946 36.4042 32.8133 36.7469C31.9564 37.0815 30.9772 37.3104 29.5491 37.3757C28.1129 37.441 27.6559 37.457 24 37.457C20.3441 37.457 19.8871 37.441 18.4509 37.3757C17.0146 37.3104 16.0435 37.0815 15.1867 36.7469C14.3053 36.4042 13.5546 35.9387 12.8038 35.1961C12.053 34.4453 11.596 33.6946 11.2533 32.8133C10.9187 31.9564 10.6903 30.9772 10.625 29.5491C10.5597 28.1129 10.5433 27.656 10.5433 24.0001C10.5433 20.3442 10.5597 19.8874 10.625 18.4512C10.6903 17.0149 10.9187 16.0438 11.2533 15.187C11.596 14.3056 12.0612 13.5549 12.8038 12.8042C13.5546 12.0534 14.3053 11.5961 15.1867 11.2533C16.0435 10.9188 17.0228 10.6907 18.4509 10.6254C19.8871 10.5601 20.3441 10.5433 24 10.5433C27.6559 10.5433 28.1129 10.5601 29.5491 10.6254C30.9853 10.6907 31.9564 10.9188 32.8133 11.2533C33.6946 11.5961 34.4454 12.0534 35.1962 12.8042C35.947 13.5549 36.4039 14.3056 36.7467 15.187C37.0812 16.0438 37.3097 17.0231 37.375 18.4512C37.4403 19.8874 37.4566 20.3442 37.4566 24.0001C37.4566 27.656 37.4403 28.1129 37.375 29.5491Z" fill="white"/>
<path d="M24.0001 19.5117C21.5193 19.5117 19.5118 21.5192 19.5118 24C19.5118 26.4808 21.5193 28.4883 24.0001 28.4883C26.4809 28.4883 28.4884 26.4808 28.4884 24C28.4884 21.5192 26.4809 19.5117 24.0001 19.5117Z" fill="white"/>
<path d="M34.9519 18.5649C34.8948 17.251 34.6744 16.5414 34.4867 16.0681C34.2419 15.4398 33.9481 14.9906 33.483 14.5173C33.0097 14.044 32.5609 13.7588 31.9325 13.514C31.4592 13.3263 30.7492 13.1139 29.4354 13.0486C28.0155 12.9833 27.5911 12.9673 24.0005 12.9673C20.4099 12.9673 19.9774 12.9833 18.5656 13.0486C17.2518 13.1057 16.5418 13.3263 16.0685 13.514C15.4401 13.7588 14.9913 14.0522 14.518 14.5173C14.0447 14.9906 13.7591 15.4398 13.5143 16.0681C13.3266 16.5414 13.1144 17.251 13.0491 18.5649C12.9838 19.9848 12.9675 20.4093 12.9675 23.9999C12.9675 27.5905 12.9838 28.0231 13.0491 29.4349C13.1062 30.7487 13.3266 31.4583 13.5143 31.9317C13.7591 32.56 14.0528 33.0092 14.518 33.4825C14.9913 33.9558 15.4401 34.2418 16.0685 34.4866C16.5418 34.6743 17.2518 34.8859 18.5656 34.9512C19.9855 35.0165 20.4099 35.0333 24.0005 35.0333C27.5911 35.0333 28.0236 35.0165 29.4354 34.9512C30.7492 34.8941 31.4592 34.6743 31.9325 34.4866C32.5609 34.2418 33.0097 33.9476 33.483 33.4825C33.9563 33.0092 34.2419 32.56 34.4867 31.9317C34.6744 31.4583 34.8866 30.7487 34.9519 29.4349C35.0172 28.015 35.0335 27.5905 35.0335 23.9999C35.0335 20.4093 35.0172 19.9848 34.9519 18.5649ZM23.9923 30.9116C20.1732 30.9116 17.0804 27.819 17.0804 23.9999C17.0804 20.1808 20.1732 17.0882 23.9923 17.0882C27.8114 17.0882 30.9043 20.1808 30.9043 23.9999C30.9043 27.819 27.8114 30.9116 23.9923 30.9116ZM31.1736 18.4342C30.2841 18.4342 29.5578 17.7083 29.5578 16.8188C29.5578 15.9293 30.2841 15.2027 31.1736 15.2027C32.0631 15.2027 32.7893 15.9293 32.7893 16.8188C32.7893 17.7083 32.0631 18.4342 31.1736 18.4342Z" fill="white"/>
</svg>