<svg xmlns="http://www.w3.org/2000/svg" width="48" height="48" viewBox="0 0 48 48" fill="none">
<path d="M48 48H0V0H48V48ZM11.2452 32.0138C13.5628 33.499 16.3128 34.3639 19.2669 34.3639C28.986 34.3639 34.4699 26.1545 34.1435 18.7937C35.1636 18.0593 36.053 17.1369 36.7548 16.0842C35.8164 16.5004 34.8045 16.7866 33.7518 16.909C34.829 16.2643 35.6613 15.2355 36.053 14.0114C35.0411 14.6071 33.9231 15.0482 32.7317 15.2849C31.7769 14.2648 30.4141 13.6281 28.9126 13.6281C25.5342 13.6281 23.0534 16.7781 23.8123 20.0505C19.4628 19.8301 15.6029 17.7491 13.0242 14.5828C11.6532 16.933 12.3142 20.01 14.6399 21.5686C13.7831 21.5441 12.9752 21.3068 12.2652 20.9151C12.2081 23.3388 13.9463 25.6075 16.4597 26.1134C15.7252 26.3174 14.9174 26.3585 14.0932 26.2035C14.7542 28.2844 16.6882 29.7942 18.9813 29.835C16.778 31.5569 14.0116 32.3323 11.2288 32.0058L11.2452 32.0138Z" fill="white"/>
</svg>